<mxfile host="app.diagrams.net" modified="2023-11-24T15:26:27.303Z" agent="Mozilla/5.0 (Windows NT 10.0; Win64; x64) AppleWebKit/537.36 (KHTML, like Gecko) Chrome/119.0.0.0 Safari/537.36 Edg/119.0.0.0" etag="UDHNupzQ6rp75vOfAZ2G" version="22.1.3" type="device">
  <diagram name="Seite-1" id="Zw-DnKGBAnq04CrAOmq3">
    <mxGraphModel dx="1426" dy="797" grid="1" gridSize="10" guides="1" tooltips="1" connect="1" arrows="1" fold="1" page="1" pageScale="1" pageWidth="827" pageHeight="1169" math="0" shadow="0">
      <root>
        <mxCell id="0" />
        <mxCell id="1" parent="0" />
        <mxCell id="m7roJ9U3dz_MMhPMtuqY-4" style="edgeStyle=orthogonalEdgeStyle;rounded=0;orthogonalLoop=1;jettySize=auto;html=1;exitX=1;exitY=0.25;exitDx=0;exitDy=0;entryX=0;entryY=0.25;entryDx=0;entryDy=0;" edge="1" parent="1" source="m7roJ9U3dz_MMhPMtuqY-1" target="m7roJ9U3dz_MMhPMtuqY-2">
          <mxGeometry relative="1" as="geometry" />
        </mxCell>
        <mxCell id="m7roJ9U3dz_MMhPMtuqY-6" value="Aktion" style="edgeLabel;html=1;align=center;verticalAlign=middle;resizable=0;points=[];" vertex="1" connectable="0" parent="m7roJ9U3dz_MMhPMtuqY-4">
          <mxGeometry x="0.0167" relative="1" as="geometry">
            <mxPoint x="-2" y="1" as="offset" />
          </mxGeometry>
        </mxCell>
        <mxCell id="m7roJ9U3dz_MMhPMtuqY-1" value="Agent" style="whiteSpace=wrap;html=1;aspect=fixed;" vertex="1" parent="1">
          <mxGeometry x="130" y="260" width="150" height="150" as="geometry" />
        </mxCell>
        <mxCell id="m7roJ9U3dz_MMhPMtuqY-5" style="edgeStyle=orthogonalEdgeStyle;rounded=0;orthogonalLoop=1;jettySize=auto;html=1;exitX=0;exitY=0.75;exitDx=0;exitDy=0;entryX=1;entryY=0.75;entryDx=0;entryDy=0;" edge="1" parent="1" source="m7roJ9U3dz_MMhPMtuqY-2" target="m7roJ9U3dz_MMhPMtuqY-1">
          <mxGeometry relative="1" as="geometry" />
        </mxCell>
        <mxCell id="m7roJ9U3dz_MMhPMtuqY-7" value="Belohnung und Zustand" style="edgeLabel;html=1;align=center;verticalAlign=middle;resizable=0;points=[];" vertex="1" connectable="0" parent="m7roJ9U3dz_MMhPMtuqY-5">
          <mxGeometry x="-0.0417" y="2" relative="1" as="geometry">
            <mxPoint x="-5" y="-4" as="offset" />
          </mxGeometry>
        </mxCell>
        <mxCell id="m7roJ9U3dz_MMhPMtuqY-2" value="Umgebung" style="whiteSpace=wrap;html=1;aspect=fixed;" vertex="1" parent="1">
          <mxGeometry x="520" y="260" width="150" height="150" as="geometry" />
        </mxCell>
      </root>
    </mxGraphModel>
  </diagram>
</mxfile>
